<svg xmlns="http://www.w3.org/2000/svg" version="1.0" width="1024.000000pt" height="1024.000000pt" viewBox="0 0 1024.000000 1024.000000" preserveAspectRatio="xMidYMid meet">

<g transform="translate(0.000000,1024.000000) scale(0.100000,-0.100000)" fill="#522c2c" stroke="none">
<path d="M4925 8823 c-112 -10 -335 -48 -450 -78 -421 -108 -836 -335 -1105 -605 -421 -422 -712 -1027 -829 -1725 -159 -943 -38 -2066 310 -2868 184 -425 380 -718 679 -1018 260 -261 431 -389 693 -517 455 -223 801 -302 1260 -289 224 6 370 25 554 72 386 99 702 281 963 552 286 297 438 638 469 1053 10 141 -1 349 -25 467 -44 217 -146 420 -293 588 -217 245 -511 411 -886 498 l-99 23 57 41 c31 22 115 66 187 98 249 110 414 219 575 380 121 122 198 228 276 381 133 263 199 566 199 919 0 338 -57 603 -186 874 -125 263 -264 441 -489 629 -334 280 -799 463 -1313 517 -122 13 -437 18 -547 8z m605 -623 c374 -66 696 -224 951 -467 261 -250 383 -560 383 -973 -1 -339 -84 -609 -261 -845 l-68 -90 -3 743 -2 743 -215 -3 -215 -3 -32 -33 c-33 -32 -33 -33 -36 -146 l-4 -113 -77 77 c-217 214 -497 313 -835 297 -446 -22 -877 -318 -1094 -753 -53 -105 -106 -261 -134 -388 -19 -88 -22 -132 -23 -331 0 -205 3 -241 23 -334 61 -269 171 -471 361 -662 207 -208 421 -314 734 -364 77 -12 169 -15 440 -13 287 2 359 -1 447 -15 274 -46 470 -121 635 -244 138 -103 235 -227 295 -376 55 -138 64 -195 64 -387 0 -157 -3 -185 -27 -275 -89 -330 -314 -584 -670 -755 -264 -128 -515 -180 -794 -166 -558 27 -996 222 -1398 621 -249 247 -424 510 -585 875 -153 348 -275 875 -311 1340 -16 208 -7 739 16 920 48 389 133 712 255 967 204 428 482 736 858 951 221 127 443 192 767 226 109 11 434 -3 555 -24z m-47 -1404 c181 -46 341 -154 434 -294 48 -73 97 -203 118 -317 26 -137 17 -379 -19 -500 -44 -144 -97 -238 -192 -332 -67 -66 -98 -90 -175 -127 -138 -67 -226 -87 -402 -93 -168 -6 -248 7 -352 59 -151 76 -257 178 -330 318 -74 145 -90 216 -90 415 1 145 4 182 23 253 81 299 288 528 553 611 85 27 96 28 225 30 88 1 131 -4 207 -23z" fill="#522c2c"/>
<path d="M4237 3823 c-29 -33 -40 -105 -28 -191 13 -101 28 -144 74 -214 45 -67 177 -196 267 -260 146 -104 339 -188 510 -223 116 -24 281 -17 363 14 64 25 129 71 161 114 25 33 33 133 17 194 -26 96 -74 122 -320 172 -182 38 -298 73 -480 148 -162 66 -318 144 -426 212 -85 55 -113 61 -138 34z" fill="#522c2c"/>
</g>
</svg>